<svg xmlns="http://www.w3.org/2000/svg" width="512" height="512" viewBox="0 0 512 512" fill="none">
  <defs>
    <linearGradient id="bg7" x1="0" y1="0" x2="512" y2="512" gradientUnits="userSpaceOnUse">
      <stop stop-color="#dcfce7"/>
      <stop offset="1" stop-color="#bbf7d0"/>
    </linearGradient>
  </defs>
  <rect width="512" height="512" rx="36" fill="url(#bg7)"/>
  <circle cx="256" cy="210" r="120" fill="#ad7442"/>
  <path d="M140 200C150 126 202 84 256 84C310 84 362 126 372 200C340 152 300 130 256 130C212 130 172 152 140 200Z" fill="#1c1917"/>
  <circle cx="214" cy="212" r="11" fill="#111827"/>
  <circle cx="298" cy="212" r="11" fill="#111827"/>
  <path d="M220 278C236 294 276 294 292 278" stroke="#7C2D12" stroke-width="10" stroke-linecap="round"/>
  <path d="M130 410C150 322 207 290 256 290C305 290 362 322 382 410" fill="#16a34a"/>
  <rect x="60" y="60" width="392" height="392" rx="28" stroke="#FFFFFF" stroke-opacity="0.38" stroke-width="4"/>
  <circle cx="108" cy="108" r="7" fill="#2563EB"/>
  <circle cx="404" cy="108" r="7" fill="#2563EB"/>
</svg>
